<?xml version="1.0" encoding="UTF-8" standalone="no"?>
<!-- Created with Inkscape (http://www.inkscape.org/) -->

<svg
   xmlns:dc="http://purl.org/dc/elements/1.1/"
   xmlns:cc="http://creativecommons.org/ns#"
   xmlns:rdf="http://www.w3.org/1999/02/22-rdf-syntax-ns#"
   xmlns:svg="http://www.w3.org/2000/svg"
   xmlns="http://www.w3.org/2000/svg"
   xmlns:sodipodi="http://sodipodi.sourceforge.net/DTD/sodipodi-0.dtd"
   xmlns:inkscape="http://www.inkscape.org/namespaces/inkscape"
   width="298.37509mm"
   height="177.0714mm"
   viewBox="0 0 298.37509 177.0714"
   version="1.1"
   id="svg8"
   sodipodi:docname="perceptron.svg"
   inkscape:version="0.92.2 (5c3e80d, 2017-08-06)">
  <sodipodi:namedview
     id="base"
     pagecolor="#ffffff"
     bordercolor="#666666"
     borderopacity="1.0"
     inkscape:pageopacity="0.0"
     inkscape:pageshadow="2"
     inkscape:zoom="0.98994949"
     inkscape:cx="373.0687"
     inkscape:cy="231.54211"
     inkscape:document-units="mm"
     inkscape:current-layer="layer1"
     showgrid="false"
     inkscape:window-width="2880"
     inkscape:window-height="1526"
     inkscape:window-x="3229"
     inkscape:window-y="-11"
     inkscape:window-maximized="1"
     showguides="true"
     inkscape:guide-bbox="true"
     fit-margin-top="0"
     fit-margin-left="0"
     fit-margin-right="0"
     fit-margin-bottom="0">
    <sodipodi:guide
       position="26.212498,158.13676"
       orientation="1,0"
       id="guide1574"
       inkscape:locked="false" />
  </sodipodi:namedview>
  <defs
     id="defs2" />
  <metadata
     id="metadata5">
    <rdf:RDF>
      <cc:Work
         rdf:about="">
        <dc:format>image/svg+xml</dc:format>
        <dc:type
           rdf:resource="http://purl.org/dc/dcmitype/StillImage" />
        <dc:title></dc:title>
      </cc:Work>
    </rdf:RDF>
  </metadata>
  <g
     id="layer1"
     inkscape:groupmode="layer"
     inkscape:label="Layer 1"
     transform="translate(31.882141,-4.8830693)">
    <path
       style="fill:none;stroke:#226b80;stroke-width:1.26499999;stroke-linecap:butt;stroke-linejoin:miter;stroke-miterlimit:4;stroke-dasharray:none;stroke-opacity:1"
       d="M 117.06405,149.7345 V 101.52639"
       id="path1509-80"
       inkscape:connector-curvature="0"
       sodipodi:nodetypes="cc" />
    <path
       style="fill:none;stroke:#000000;stroke-width:1.26499999;stroke-linecap:butt;stroke-linejoin:miter;stroke-miterlimit:4;stroke-dasharray:none;stroke-opacity:1"
       d="m 266.49293,95.260559 -173.491723,0.007"
       id="path1509-8-9-6-3"
       inkscape:connector-curvature="0"
       sodipodi:nodetypes="cc" />
    <circle
       style="opacity:1;vector-effect:none;fill:#35b0ab;fill-opacity:1;stroke:#000000;stroke-width:1.26499999;stroke-linecap:butt;stroke-linejoin:miter;stroke-miterlimit:4;stroke-dasharray:none;stroke-dashoffset:0;stroke-opacity:1"
       id="path1678"
       cx="-17.386904"
       cy="39.902523"
       r="11.717261" />
    <g
       id="g892"
       transform="translate(-336.2719,-76.746477)">
      <g
         id="g890"
         transform="matrix(0.3,0,0,-0.3,-52.5,222.75)"
         xml:space="preserve"
         stroke-miterlimit="10.433"
         font-style="normal"
         font-variant="normal"
         font-weight="normal"
         font-stretch="normal"
         font-size-adjust="none"
         letter-spacing="normal"
         word-spacing="normal"
         style="font-style:normal;font-variant:normal;font-weight:normal;font-stretch:normal;letter-spacing:normal;word-spacing:normal;text-anchor:start;fill:none;fill-opacity:1;fill-rule:evenodd;stroke:#000000;stroke-linecap:butt;stroke-linejoin:miter;stroke-miterlimit:10.43299961;stroke-dasharray:none;stroke-dashoffset:0;stroke-opacity:1"><path
           d="m 1231.4,361.49 v 0.13 l 0.1,0.15 v 0.16 l 0.1,0.18 v 0.2 l 0.1,0.2 v 0.22 l 0.1,0.22 0.1,0.24 0.1,0.24 0.1,0.24 0.1,0.25 0.1,0.25 0.1,0.25 0.1,0.25 0.2,0.24 0.1,0.24 0.2,0.24 0.1,0.23 0.2,0.23 0.2,0.21 0.2,0.2 0.2,0.19 0.2,0.18 0.3,0.16 0.2,0.14 0.1,0.07 0.2,0.06 0.1,0.05 0.1,0.05 0.2,0.05 0.1,0.04 0.2,0.03 0.1,0.03 0.2,0.02 0.1,0.02 0.2,0.01 h 0.1 c 0.3,0 1.5,0 2.5,-0.64 -1.4,-0.25 -2.4,-1.5 -2.4,-2.68 0,-0.8 0.6,-1.75 1.9,-1.75 1.1,0 2.7,0.89 2.7,2.89 0,2.59 -2.9,3.28 -4.6,3.28 -2.9,0 -4.6,-2.64 -5.2,-3.78 -1.3,3.28 -4,3.78 -5.4,3.78 -5.2,0 -8,-6.42 -8,-7.67 0,-0.5 0.5,-0.5 0.6,-0.5 0.4,0 0.5,0.1 0.6,0.54 1.7,5.28 5,6.53 6.7,6.53 0.9,0 2.7,-0.43 2.7,-3.32 0,-1.55 -0.9,-4.9 -2.7,-11.86 -0.8,-3.1 -2.6,-5.19 -4.8,-5.19 -0.3,0 -1.4,0 -2.5,0.65 1.3,0.24 2.4,1.29 2.4,2.69 0,1.35 -1.1,1.74 -1.9,1.74 -1.5,0 -2.7,-1.3 -2.7,-2.89 0,-2.29 2.5,-3.29 4.7,-3.29 3.3,0 5.1,3.49 5.2,3.79 0.6,-1.85 2.4,-3.79 5.4,-3.79 5.1,0 8,6.43 8,7.68 0,0.5 -0.5,0.5 -0.6,0.5 -0.5,0 -0.6,-0.21 -0.7,-0.55 -1.6,-5.33 -5,-6.53 -6.6,-6.53 -1.9,0 -2.7,1.59 -2.7,3.3 0,1.09 0.3,2.18 0.8,4.37 z"
           id="path886"
           inkscape:connector-curvature="0"
           style="fill:#000000;stroke-width:0" /><path
           d="m 1254.9,361.04 v 0.04 0.04 0.04 0.04 0.04 0.04 0.04 0.03 0.03 0.04 0.03 0.03 0.03 0.03 l -0.1,0.02 v 0.03 0.03 0.02 0.05 0.04 0.04 0.03 0.03 l -0.1,0.03 v 0.02 0.03 0.02 l -0.1,0.01 v 0.02 l -0.1,0.01 v 0.01 0.01 0 l -0.1,0.01 v 0 0 l -0.1,0.01 v 0 0 0 h -0.1 v 0.01 h -0.1 v 0 0 h -0.1 v 0 0 h -0.1 v 0 h -0.1 c -2.2,-2.2 -5.4,-2.23 -6.8,-2.23 v -1.25 c 0.8,0 3.1,0 5,0.96 v -17.76 c 0,-1.16 0,-1.61 -3.4,-1.61 h -1.3 v -1.25 c 0.6,0.03 4.9,0.14 6.1,0.14 1.1,0 5.5,-0.11 6.3,-0.14 v 1.25 h -1.3 c -3.5,0 -3.5,0.45 -3.5,1.61 z"
           id="path888"
           inkscape:connector-curvature="0"
           style="fill:#000000;stroke-width:0" /></g>    </g>
    <g
       id="g1735"
       transform="translate(3.4481253,-1.3226098)">
      <circle
         r="11.717261"
         cy="67.247833"
         cx="-20.83503"
         id="path1678-1"
         style="opacity:1;vector-effect:none;fill:#35b0ab;fill-opacity:1;stroke:#000000;stroke-width:1.26499999;stroke-linecap:butt;stroke-linejoin:miter;stroke-miterlimit:4;stroke-dasharray:none;stroke-dashoffset:0;stroke-opacity:1" />
      <g
         transform="translate(-339.88503,-49.40117)"
         id="g924">
        <g
           style="font-style:normal;font-variant:normal;font-weight:normal;font-stretch:normal;letter-spacing:normal;word-spacing:normal;text-anchor:start;fill:none;fill-opacity:1;fill-rule:evenodd;stroke:#000000;stroke-linecap:butt;stroke-linejoin:miter;stroke-miterlimit:10.43299961;stroke-dasharray:none;stroke-dashoffset:0;stroke-opacity:1"
           id="g922"
           transform="matrix(0.3,0,0,-0.3,-52.5,222.75)"
           xml:space="preserve"
           stroke-miterlimit="10.433"
           font-style="normal"
           font-variant="normal"
           font-weight="normal"
           font-stretch="normal"
           font-size-adjust="none"
           letter-spacing="normal"
           word-spacing="normal"><path
             style="fill:#000000;stroke-width:0"
             inkscape:connector-curvature="0"
             d="m 1231.4,361.49 v 0.13 l 0.1,0.15 v 0.16 l 0.1,0.18 v 0.2 l 0.1,0.2 v 0.22 l 0.1,0.22 0.1,0.24 0.1,0.24 0.1,0.24 0.1,0.25 0.1,0.25 0.1,0.25 0.1,0.25 0.2,0.24 0.1,0.24 0.2,0.24 0.1,0.23 0.2,0.23 0.2,0.21 0.2,0.2 0.2,0.19 0.2,0.18 0.3,0.16 0.2,0.14 0.1,0.07 0.2,0.06 0.1,0.05 0.1,0.05 0.2,0.05 0.1,0.04 0.2,0.03 0.1,0.03 0.2,0.02 0.1,0.02 0.2,0.01 h 0.1 c 0.3,0 1.5,0 2.5,-0.64 -1.4,-0.25 -2.4,-1.5 -2.4,-2.68 0,-0.8 0.6,-1.75 1.9,-1.75 1.1,0 2.7,0.89 2.7,2.89 0,2.59 -2.9,3.28 -4.6,3.28 -2.9,0 -4.6,-2.64 -5.2,-3.78 -1.3,3.28 -4,3.78 -5.4,3.78 -5.2,0 -8,-6.42 -8,-7.67 0,-0.5 0.5,-0.5 0.6,-0.5 0.4,0 0.5,0.1 0.6,0.54 1.7,5.28 5,6.53 6.7,6.53 0.9,0 2.7,-0.43 2.7,-3.32 0,-1.55 -0.9,-4.9 -2.7,-11.86 -0.8,-3.1 -2.6,-5.19 -4.8,-5.19 -0.3,0 -1.4,0 -2.5,0.65 1.3,0.24 2.4,1.29 2.4,2.69 0,1.35 -1.1,1.74 -1.9,1.74 -1.5,0 -2.7,-1.3 -2.7,-2.89 0,-2.29 2.5,-3.29 4.7,-3.29 3.3,0 5.1,3.49 5.2,3.79 0.6,-1.85 2.4,-3.79 5.4,-3.79 5.1,0 8,6.43 8,7.68 0,0.5 -0.5,0.5 -0.6,0.5 -0.5,0 -0.6,-0.21 -0.7,-0.55 -1.6,-5.33 -5,-6.53 -6.6,-6.53 -1.9,0 -2.7,1.59 -2.7,3.3 0,1.09 0.3,2.18 0.8,4.37 z"
             id="path918" /><path
             style="fill:#000000;stroke-width:0"
             inkscape:connector-curvature="0"
             d="m 1260.8,345.22 h -1.2 c -0.1,-0.76 -0.4,-2.83 -0.9,-3.17 -0.3,-0.2 -2.9,-0.2 -3.4,-0.2 h -6.5 c 3.7,3.23 4.9,4.2 7,5.84 2.6,2.06 5,4.22 5,7.53 0,4.22 -3.7,6.8 -8.2,6.8 -4.3,0 -7.2,-3.03 -7.2,-6.23 0,-1.79 1.5,-1.96 1.9,-1.96 0.8,0 1.8,0.6 1.8,1.85 0,0.62 -0.3,1.84 -2.1,1.84 1.1,2.47 3.5,3.23 5.1,3.23 3.5,0 5.3,-2.7 5.3,-5.53 0,-3.03 -2.1,-5.43 -3.3,-6.68 l -8.3,-8.3 c -0.4,-0.31 -0.4,-0.39 -0.4,-1.36 h 14.4 z"
             id="path920" /></g>      </g>
    </g>
    <g
       id="g1742"
       transform="translate(4.9136901)">
      <circle
         r="11.717261"
         cy="91.947914"
         cx="-22.300594"
         id="path1678-6"
         style="opacity:1;vector-effect:none;fill:#35b0ab;fill-opacity:1;stroke:#000000;stroke-width:1.26499999;stroke-linecap:butt;stroke-linejoin:miter;stroke-miterlimit:4;stroke-dasharray:none;stroke-dashoffset:0;stroke-opacity:1" />
      <g
         transform="translate(-203.88542,13.814364)"
         id="g964">
        <g
           style="font-style:normal;font-variant:normal;font-weight:normal;font-stretch:normal;letter-spacing:normal;word-spacing:normal;text-anchor:start;fill:none;fill-opacity:1;fill-rule:evenodd;stroke:#000000;stroke-linecap:butt;stroke-linejoin:miter;stroke-miterlimit:10.43299961;stroke-dasharray:none;stroke-dashoffset:0;stroke-opacity:1"
           word-spacing="normal"
           letter-spacing="normal"
           font-size-adjust="none"
           font-stretch="normal"
           font-weight="normal"
           font-variant="normal"
           font-style="normal"
           stroke-miterlimit="10.433"
           xml:space="preserve"
           transform="matrix(0.3,0,0,-0.3,-190.01017,184.12955)"
           id="g962"><path
             style="fill:#000000;stroke-width:0"
             inkscape:connector-curvature="0"
             id="path958"
             d="m 1231.4,361.49 v 0.13 l 0.1,0.15 v 0.16 l 0.1,0.18 v 0.2 l 0.1,0.2 v 0.22 l 0.1,0.22 0.1,0.24 0.1,0.24 0.1,0.24 0.1,0.25 0.1,0.25 0.1,0.25 0.1,0.25 0.2,0.24 0.1,0.24 0.2,0.24 0.1,0.23 0.2,0.23 0.2,0.21 0.2,0.2 0.2,0.19 0.2,0.18 0.3,0.16 0.2,0.14 0.1,0.07 0.2,0.06 0.1,0.05 0.1,0.05 0.2,0.05 0.1,0.04 0.2,0.03 0.1,0.03 0.2,0.02 0.1,0.02 0.2,0.01 h 0.1 c 0.3,0 1.5,0 2.5,-0.64 -1.4,-0.25 -2.4,-1.5 -2.4,-2.68 0,-0.8 0.6,-1.75 1.9,-1.75 1.1,0 2.7,0.89 2.7,2.89 0,2.59 -2.9,3.28 -4.6,3.28 -2.9,0 -4.6,-2.64 -5.2,-3.78 -1.3,3.28 -4,3.78 -5.4,3.78 -5.2,0 -8,-6.42 -8,-7.67 0,-0.5 0.5,-0.5 0.6,-0.5 0.4,0 0.5,0.1 0.6,0.54 1.7,5.28 5,6.53 6.7,6.53 0.9,0 2.7,-0.43 2.7,-3.32 0,-1.55 -0.9,-4.9 -2.7,-11.86 -0.8,-3.1 -2.6,-5.19 -4.8,-5.19 -0.3,0 -1.4,0 -2.5,0.65 1.3,0.24 2.4,1.29 2.4,2.69 0,1.35 -1.1,1.74 -1.9,1.74 -1.5,0 -2.7,-1.3 -2.7,-2.89 0,-2.29 2.5,-3.29 4.7,-3.29 3.3,0 5.1,3.49 5.2,3.79 0.6,-1.85 2.4,-3.79 5.4,-3.79 5.1,0 8,6.43 8,7.68 0,0.5 -0.5,0.5 -0.6,0.5 -0.5,0 -0.6,-0.21 -0.7,-0.55 -1.6,-5.33 -5,-6.53 -6.6,-6.53 -1.9,0 -2.7,1.59 -2.7,3.3 0,1.09 0.3,2.18 0.8,4.37 z" /><path
             style="fill:#000000;stroke-width:0"
             inkscape:connector-curvature="0"
             id="path960"
             d="m 1252.7,350.52 0.3,-0.01 0.2,-0.01 0.3,-0.03 0.2,-0.04 0.2,-0.05 0.3,-0.06 0.2,-0.07 0.2,-0.08 0.2,-0.1 0.2,-0.1 0.2,-0.12 0.2,-0.12 0.2,-0.14 0.1,-0.15 0.2,-0.16 0.2,-0.17 0.1,-0.18 0.2,-0.19 0.1,-0.21 0.1,-0.21 0.1,-0.23 0.2,-0.23 0.1,-0.25 v -0.25 l 0.1,-0.27 0.1,-0.28 0.1,-0.29 v -0.3 -0.31 l 0.1,-0.32 v -0.34 -0.34 c 0,-4.33 -2.5,-5.61 -4.5,-5.61 -1.4,0 -4.5,0.38 -6,2.44 1.7,0.06 2,1.22 2,1.95 0,1.11 -0.8,1.91 -1.9,1.91 -0.9,0 -1.9,-0.6 -1.9,-2.02 0,-3.28 3.6,-5.4 7.8,-5.4 4.9,0 8.2,3.25 8.2,6.73 0,2.72 -2.2,5.44 -6.1,6.23 3.7,1.33 5,3.94 5,6.07 0,2.75 -3.1,4.81 -7,4.81 -3.9,0 -6.8,-1.89 -6.8,-4.67 0,-1.19 0.7,-1.85 1.8,-1.85 1.1,0 1.8,0.8 1.8,1.77 0,1.02 -0.7,1.75 -1.8,1.81 1.2,1.55 3.6,1.92 4.9,1.92 1.5,0 3.8,-0.76 3.8,-3.79 0,-1.47 -0.5,-3.07 -1.4,-4.14 -1.2,-1.33 -2.2,-1.41 -3.9,-1.5 -0.9,-0.08 -1,-0.08 -1.1,-0.11 -0.1,0 -0.4,-0.07 -0.4,-0.46 0,-0.48 0.3,-0.48 0.9,-0.48 z" /></g>      </g>
    </g>
    <g
       id="g1749"
       transform="translate(1.7008929)">
      <circle
         r="11.717261"
         cy="154.125"
         cx="-19.087797"
         id="path1678-7"
         style="opacity:1;vector-effect:none;fill:#35b0ab;fill-opacity:1;stroke:#000000;stroke-width:1.26499999;stroke-linecap:butt;stroke-linejoin:miter;stroke-miterlimit:4;stroke-dasharray:none;stroke-dashoffset:0;stroke-opacity:1" />
      <g
         transform="translate(-338.2128,37.425)"
         id="g1012">
        <g
           style="font-style:normal;font-variant:normal;font-weight:normal;font-stretch:normal;letter-spacing:normal;word-spacing:normal;text-anchor:start;fill:none;fill-opacity:1;fill-rule:evenodd;stroke:#000000;stroke-linecap:butt;stroke-linejoin:miter;stroke-miterlimit:10.43299961;stroke-dasharray:none;stroke-dashoffset:0;stroke-opacity:1"
           id="g1010"
           transform="matrix(0.3,0,0,-0.3,-52.5,222.75)"
           xml:space="preserve"
           stroke-miterlimit="10.433"
           font-style="normal"
           font-variant="normal"
           font-weight="normal"
           font-stretch="normal"
           font-size-adjust="none"
           letter-spacing="normal"
           word-spacing="normal"><path
             style="fill:#000000;stroke-width:0"
             inkscape:connector-curvature="0"
             d="m 1229,361.49 v 0.13 l 0.1,0.15 v 0.16 l 0.1,0.18 v 0.2 l 0.1,0.2 v 0.22 l 0.1,0.22 0.1,0.24 0.1,0.24 0.1,0.24 0.1,0.25 0.1,0.25 0.1,0.25 0.1,0.25 0.2,0.24 0.1,0.24 0.2,0.24 0.1,0.23 0.2,0.23 0.2,0.21 0.2,0.2 0.2,0.19 0.2,0.18 0.3,0.16 0.2,0.14 0.1,0.07 0.2,0.06 0.1,0.05 0.1,0.05 0.2,0.05 0.1,0.04 0.2,0.03 0.1,0.03 0.2,0.02 0.1,0.02 0.2,0.01 h 0.1 c 0.3,0 1.5,0 2.5,-0.64 -1.4,-0.25 -2.4,-1.5 -2.4,-2.68 0,-0.8 0.6,-1.75 1.9,-1.75 1.1,0 2.7,0.89 2.7,2.89 0,2.59 -2.9,3.28 -4.6,3.28 -2.9,0 -4.7,-2.64 -5.2,-3.78 -1.3,3.28 -4,3.78 -5.4,3.78 -5.2,0 -8.1,-6.42 -8.1,-7.67 0,-0.5 0.5,-0.5 0.6,-0.5 0.4,0 0.6,0.1 0.7,0.54 1.7,5.28 5,6.53 6.7,6.53 0.9,0 2.6,-0.43 2.6,-3.32 0,-1.55 -0.8,-4.9 -2.6,-11.86 -0.8,-3.1 -2.6,-5.19 -4.8,-5.19 -0.3,0 -1.4,0 -2.4,0.65 1.2,0.24 2.3,1.29 2.3,2.69 0,1.35 -1.1,1.74 -1.8,1.74 -1.5,0 -2.8,-1.3 -2.8,-2.89 0,-2.29 2.5,-3.29 4.7,-3.29 3.3,0 5.1,3.49 5.2,3.79 0.6,-1.85 2.4,-3.79 5.4,-3.79 5.1,0 8,6.43 8,7.68 0,0.5 -0.5,0.5 -0.6,0.5 -0.5,0 -0.6,-0.21 -0.7,-0.55 -1.6,-5.33 -5,-6.53 -6.6,-6.53 -1.9,0 -2.8,1.59 -2.8,3.3 0,1.09 0.4,2.18 0.9,4.37 z"
             id="path1006" /><path
             style="fill:#000000;stroke-width:0"
             inkscape:connector-curvature="0"
             d="m 1245.1,341.07 -0.1,-0.05 v -0.04 -0.05 -0.05 -0.05 -0.05 -0.05 l -0.1,-0.06 v -0.11 -0.11 -0.11 l -0.1,-0.11 v -0.05 -0.05 -0.05 -0.05 -0.05 -0.05 -0.04 l -0.1,-0.04 v -0.04 -0.03 -0.03 -0.03 -0.03 -0.02 0 -0.01 -0.01 -0.01 c 0,-0.76 0.6,-1.1 1.2,-1.1 0.6,0 1.2,0.45 1.4,0.76 0.1,0.31 0.4,1.42 0.6,2.16 0.2,0.65 0.5,2.26 0.7,3.14 0.2,0.76 0.5,1.53 0.6,2.33 0.4,1.43 0.5,1.7 1.5,3.14 1,1.39 2.6,3.2 5.2,3.2 2,0 2.1,-1.78 2.1,-2.44 0,-2.09 -1.5,-5.95 -2.1,-7.42 -0.4,-0.98 -0.5,-1.3 -0.5,-1.89 0,-1.84 1.5,-2.98 3.3,-2.98 3.5,0 5,4.79 5,5.32 0,0.46 -0.4,0.46 -0.5,0.46 -0.5,0 -0.6,-0.21 -0.7,-0.6 -0.8,-2.78 -2.3,-4.22 -3.7,-4.22 -0.7,0 -0.9,0.49 -0.9,1.22 0,0.8 0.2,1.25 0.8,2.83 0.5,1.08 1.9,4.77 1.9,6.72 0,3.39 -2.7,3.97 -4.5,3.97 -2.9,0 -4.9,-1.77 -5.9,-3.16 -0.3,2.39 -2.3,3.16 -3.8,3.16 -1.5,0 -2.3,-1.08 -2.7,-1.88 -0.8,-1.28 -1.3,-3.28 -1.3,-3.45 0,-0.45 0.5,-0.45 0.6,-0.45 0.5,0 0.6,0.11 0.8,1.04 0.5,2.07 1.2,3.77 2.5,3.77 1,0 1.2,-0.77 1.2,-1.7 0,-0.68 -0.3,-1.96 -0.6,-2.89 -0.2,-0.96 -0.6,-2.38 -0.7,-3.14 z"
             id="path1008" /></g>      </g>
    </g>
    <path
       style="fill:none;stroke:#000000;stroke-width:1.26499999;stroke-linecap:butt;stroke-linejoin:miter;stroke-miterlimit:4;stroke-dasharray:none;stroke-opacity:1"
       d="M 82.05175,81.314825 V 53.78605"
       id="path1509"
       inkscape:connector-curvature="0" />
    <path
       style="fill:none;stroke:#000000;stroke-width:1.26499999;stroke-linecap:butt;stroke-linejoin:miter;stroke-miterlimit:4;stroke-dasharray:none;stroke-opacity:1"
       d="M 82.21675,96.91398 -5.8799298,43.227577"
       id="path1509-8"
       inkscape:connector-curvature="0"
       sodipodi:nodetypes="cc" />
    <path
       style="fill:none;stroke:#000000;stroke-width:1.26499999;stroke-linecap:butt;stroke-linejoin:miter;stroke-miterlimit:4;stroke-dasharray:none;stroke-opacity:1"
       d="M 81.22675,97.33098 -5.6696427,68.23467"
       id="path1509-8-9"
       inkscape:connector-curvature="0"
       sodipodi:nodetypes="cc" />
    <path
       style="fill:none;stroke:#000000;stroke-width:1.26499999;stroke-linecap:butt;stroke-linejoin:miter;stroke-miterlimit:4;stroke-dasharray:none;stroke-opacity:1"
       d="M 81.22675,97.33098 -5.6696427,94.503184"
       id="path1509-8-9-6"
       inkscape:connector-curvature="0"
       sodipodi:nodetypes="cc" />
    <path
       style="fill:none;stroke:#000000;stroke-width:1.26499999;stroke-linecap:butt;stroke-linejoin:miter;stroke-miterlimit:4;stroke-dasharray:none;stroke-opacity:1"
       d="M 81.22675,97.33098 -5.6696427,154.03443"
       id="path1509-8-9-1"
       inkscape:connector-curvature="0"
       sodipodi:nodetypes="cc" />
    <circle
       r="15.292082"
       cy="96.68148"
       cx="82.05175"
       id="path815"
       style="opacity:1;vector-effect:none;fill:#35b0ab;fill-opacity:1;stroke:#000000;stroke-width:1.26499999;stroke-linecap:butt;stroke-linejoin:miter;stroke-miterlimit:4;stroke-dasharray:none;stroke-dashoffset:0;stroke-opacity:1" />
    <g
       id="g868"
       transform="translate(-237.46325,-17.03202)">
      <g
         word-spacing="normal"
         letter-spacing="normal"
         font-size-adjust="none"
         font-stretch="normal"
         font-weight="normal"
         font-variant="normal"
         font-style="normal"
         stroke-miterlimit="10.433"
         xml:space="preserve"
         transform="matrix(0.3,0,0,-0.3,-52.5,222.75)"
         id="content"
         style="font-style:normal;font-variant:normal;font-weight:normal;font-stretch:normal;letter-spacing:normal;word-spacing:normal;text-anchor:start;fill:none;fill-opacity:1;fill-rule:evenodd;stroke:#000000;stroke-linecap:butt;stroke-linejoin:miter;stroke-miterlimit:10.43299961;stroke-dasharray:none;stroke-dashoffset:0;stroke-opacity:1"><path
           id="path865"
           d="m 1240.6,362.68 v 0.02 l 0.1,0.02 v 0.02 0.03 0.02 0.02 0.02 l 0.1,0.02 v 0.02 0.02 0.04 0.03 l 0.1,0.04 v 0.03 0.03 0.03 l 0.1,0.03 v 0.03 0.03 0.02 0.03 0.02 0.02 0.02 0.02 0.02 0.02 l 0.1,0.01 v 0.02 0.01 0.02 0.01 0.01 0.01 0.01 0.01 0.01 c 0,0.25 -0.2,0.5 -0.4,0.71 l -10.2,14.75 h 11.5 c 8.4,0 10.9,-1.8 12,-9.68 h 1.2 l -1.4,11.22 h -27.6 c -1.2,0 -1.3,0 -1.3,-1.15 l 12.4,-18.03 -11.9,-13.5 c -0.5,-0.55 -0.5,-0.65 -0.5,-0.8 0,-0.55 0.5,-0.55 1.3,-0.55 h 27.6 l 1.4,11.77 h -1.2 c -0.9,-8.33 -4.3,-9.67 -12.1,-9.67 h -13.8 z"
           inkscape:connector-curvature="0"
           style="fill:#000000;stroke-width:0" /></g>    </g>
    <g
       transform="translate(-0.01438569)"
       id="g1859">
      <circle
         style="opacity:1;vector-effect:none;fill:#35b0ab;fill-opacity:1;stroke:#000000;stroke-width:1.26499999;stroke-linecap:butt;stroke-linejoin:miter;stroke-miterlimit:4;stroke-dasharray:none;stroke-dashoffset:0;stroke-opacity:1"
         id="path1833"
         cx="-17.372519"
         cy="116.19215"
         r="1.0690781" />
      <circle
         style="opacity:1;vector-effect:none;fill:#35b0ab;fill-opacity:1;stroke:#000000;stroke-width:1.26499999;stroke-linecap:butt;stroke-linejoin:miter;stroke-miterlimit:4;stroke-dasharray:none;stroke-dashoffset:0;stroke-opacity:1"
         id="path1833-1"
         cx="-17.372519"
         cy="123.14116"
         r="1.0690781" />
      <circle
         style="opacity:1;vector-effect:none;fill:#35b0ab;fill-opacity:1;stroke:#000000;stroke-width:1.26499999;stroke-linecap:butt;stroke-linejoin:miter;stroke-miterlimit:4;stroke-dasharray:none;stroke-dashoffset:0;stroke-opacity:1"
         id="path1833-6"
         cx="-17.372519"
         cy="130.09018"
         r="1.0690781" />
    </g>
    <g
       id="g1669">
      <rect
         y="49.083416"
         x="18.952053"
         height="17.153412"
         width="17.153412"
         id="rect1597"
         style="opacity:1;vector-effect:none;fill:#35b0ab;fill-opacity:1;stroke:#000000;stroke-width:0.94956678;stroke-linecap:butt;stroke-linejoin:miter;stroke-miterlimit:4;stroke-dasharray:none;stroke-dashoffset:0;stroke-opacity:1" />
      <g
         transform="translate(-291.20624,-58.988878)"
         id="g1128">
        <g
           style="font-style:normal;font-variant:normal;font-weight:normal;font-stretch:normal;letter-spacing:normal;word-spacing:normal;text-anchor:start;fill:none;fill-opacity:1;fill-rule:evenodd;stroke:#000000;stroke-linecap:butt;stroke-linejoin:miter;stroke-miterlimit:10.43299961;stroke-dasharray:none;stroke-dashoffset:0;stroke-opacity:1"
           id="g1126"
           transform="matrix(0.3,0,0,-0.3,-52.5,222.75)"
           xml:space="preserve"
           stroke-miterlimit="10.433"
           font-style="normal"
           font-variant="normal"
           font-weight="normal"
           font-stretch="normal"
           font-size-adjust="none"
           letter-spacing="normal"
           word-spacing="normal"><path
             style="fill:#000000;stroke-width:0"
             inkscape:connector-curvature="0"
             d="m 1243.6,364.97 v 0.21 0.2 0.2 l -0.1,0.19 v 0.18 0.18 0.17 l -0.1,0.17 v 0.16 l -0.1,0.15 v 0.14 l -0.1,0.14 v 0.14 l -0.1,0.12 v 0.12 l -0.1,0.12 -0.1,0.11 v 0.1 l -0.1,0.09 -0.1,0.09 -0.1,0.08 -0.1,0.07 v 0.07 l -0.1,0.06 -0.1,0.05 -0.1,0.05 -0.1,0.04 -0.1,0.03 -0.1,0.02 -0.1,0.02 -0.1,0.01 -0.1,0.01 c -1.3,0 -2.6,-1.19 -2.6,-2.35 0,-0.48 0.2,-1.03 0.7,-1.48 0.9,-0.75 1.7,-2.09 1.7,-4.19 0,-2 -0.9,-4.83 -2.4,-7.12 -1.5,-2.14 -3.4,-3.83 -5.7,-3.83 -2.9,0 -4.4,1.78 -4.9,4.47 0.6,1.29 1.7,4.48 1.7,5.89 0,0.59 -0.2,1.09 -0.9,1.09 -0.4,0 -0.9,-0.11 -1.3,-0.84 -0.6,-1 -1.2,-4.24 -1.2,-6.03 -1.6,-2.35 -3.6,-4.58 -6.7,-4.58 -3.3,0 -4.4,2.94 -4.4,5.72 0,6.23 5.1,11.47 5.1,12.11 0,0.54 -0.4,0.95 -0.9,0.95 -0.7,0 -1,-0.66 -1.3,-1.11 -2.6,-3.69 -4.5,-9.61 -4.5,-14.14 0,-3.44 1.2,-7.13 5.3,-7.13 3.5,0 5.8,2.49 7.6,5.24 0.5,-2.89 2.4,-5.24 5.5,-5.24 3.9,0 6.3,3.04 8.1,6.79 1.2,2.43 3.1,9.2 3.1,12.29 z"
             id="path1122" /><path
             style="fill:#000000;stroke-width:0"
             inkscape:connector-curvature="0"
             d="m 1256.1,361.04 v 0.04 0.04 0.04 0.04 0.04 0.04 0.04 0.03 0.03 0.04 0.03 0.03 0.03 0.03 l -0.1,0.02 v 0.03 0.03 0.02 0.05 0.04 0.04 0.03 0.03 l -0.1,0.03 v 0.02 0.03 0.02 l -0.1,0.01 v 0.02 l -0.1,0.01 v 0.01 0.01 0 l -0.1,0.01 v 0 0 l -0.1,0.01 v 0 0 0 h -0.1 v 0.01 h -0.1 v 0 0 h -0.1 v 0 0 h -0.1 v 0 h -0.1 c -2.2,-2.2 -5.4,-2.23 -6.8,-2.23 v -1.25 c 0.8,0 3.1,0 5,0.96 v -17.76 c 0,-1.16 0,-1.61 -3.4,-1.61 h -1.4 v -1.25 c 0.7,0.03 4.9,0.14 6.3,0.14 1,0 5.4,-0.11 6.2,-0.14 v 1.25 h -1.3 c -3.5,0 -3.5,0.45 -3.5,1.61 z"
             id="path1124" /></g>      </g>
    </g>
    <g
       id="g1655"
       transform="translate(13.596458,-6.815373)">
      <rect
         y="94.438576"
         x="5.3555961"
         height="17.153412"
         width="17.153412"
         id="rect1597-0"
         style="opacity:1;vector-effect:none;fill:#35b0ab;fill-opacity:1;stroke:#000000;stroke-width:0.94956678;stroke-linecap:butt;stroke-linejoin:miter;stroke-miterlimit:4;stroke-dasharray:none;stroke-dashoffset:0;stroke-opacity:1" />
      <g
         transform="translate(-305.0127,-13.738718)"
         id="g1276">
        <g
           style="font-style:normal;font-variant:normal;font-weight:normal;font-stretch:normal;letter-spacing:normal;word-spacing:normal;text-anchor:start;fill:none;fill-opacity:1;fill-rule:evenodd;stroke:#000000;stroke-linecap:butt;stroke-linejoin:miter;stroke-miterlimit:10.43299961;stroke-dasharray:none;stroke-dashoffset:0;stroke-opacity:1"
           id="g1274"
           transform="matrix(0.3,0,0,-0.3,-52.5,222.75)"
           xml:space="preserve"
           stroke-miterlimit="10.433"
           font-style="normal"
           font-variant="normal"
           font-weight="normal"
           font-stretch="normal"
           font-size-adjust="none"
           letter-spacing="normal"
           word-spacing="normal"><path
             style="fill:#000000;stroke-width:0"
             inkscape:connector-curvature="0"
             d="m 1243.6,364.97 v 0.21 0.2 0.2 l -0.1,0.19 v 0.18 0.18 0.17 l -0.1,0.17 v 0.16 l -0.1,0.15 v 0.14 l -0.1,0.14 v 0.14 l -0.1,0.12 v 0.12 l -0.1,0.12 -0.1,0.11 v 0.1 l -0.1,0.09 -0.1,0.09 -0.1,0.08 -0.1,0.07 v 0.07 l -0.1,0.06 -0.1,0.05 -0.1,0.05 -0.1,0.04 -0.1,0.03 -0.1,0.02 -0.1,0.02 -0.1,0.01 -0.1,0.01 c -1.3,0 -2.6,-1.19 -2.6,-2.35 0,-0.48 0.2,-1.03 0.7,-1.48 0.9,-0.75 1.7,-2.09 1.7,-4.19 0,-2 -0.9,-4.83 -2.4,-7.12 -1.5,-2.14 -3.4,-3.83 -5.7,-3.83 -2.9,0 -4.4,1.78 -4.9,4.47 0.6,1.29 1.7,4.48 1.7,5.89 0,0.59 -0.2,1.09 -0.9,1.09 -0.4,0 -0.9,-0.11 -1.3,-0.84 -0.6,-1 -1.2,-4.24 -1.2,-6.03 -1.6,-2.35 -3.6,-4.58 -6.7,-4.58 -3.3,0 -4.4,2.94 -4.4,5.72 0,6.23 5.1,11.47 5.1,12.11 0,0.54 -0.4,0.95 -0.9,0.95 -0.7,0 -1,-0.66 -1.3,-1.11 -2.6,-3.69 -4.5,-9.61 -4.5,-14.14 0,-3.44 1.2,-7.13 5.3,-7.13 3.5,0 5.8,2.49 7.6,5.24 0.5,-2.89 2.4,-5.24 5.5,-5.24 3.9,0 6.3,3.04 8.1,6.79 1.2,2.43 3.1,9.2 3.1,12.29 z"
             id="path1270" /><path
             style="fill:#000000;stroke-width:0"
             inkscape:connector-curvature="0"
             d="m 1253.9,350.52 0.3,-0.01 0.2,-0.01 0.3,-0.03 0.2,-0.04 0.2,-0.05 0.3,-0.06 0.2,-0.07 0.2,-0.08 0.2,-0.1 0.2,-0.1 0.2,-0.12 0.2,-0.12 0.2,-0.14 0.1,-0.15 0.2,-0.16 0.2,-0.17 0.1,-0.18 0.2,-0.19 0.1,-0.21 0.1,-0.21 0.1,-0.23 0.2,-0.23 0.1,-0.25 v -0.25 l 0.1,-0.27 0.1,-0.28 0.1,-0.29 v -0.3 -0.31 l 0.1,-0.32 v -0.34 -0.34 c 0,-4.33 -2.5,-5.61 -4.5,-5.61 -1.4,0 -4.5,0.38 -6,2.44 1.7,0.06 2.1,1.22 2.1,1.95 0,1.11 -0.9,1.91 -2,1.91 -0.9,0 -1.9,-0.6 -1.9,-2.02 0,-3.28 3.6,-5.4 7.8,-5.4 4.9,0 8.2,3.25 8.2,6.73 0,2.72 -2.2,5.44 -6.1,6.23 3.7,1.33 5,3.94 5,6.07 0,2.75 -3.1,4.81 -7,4.81 -3.9,0 -6.8,-1.89 -6.8,-4.67 0,-1.19 0.7,-1.85 1.8,-1.85 1.1,0 1.7,0.8 1.7,1.77 0,1.02 -0.6,1.75 -1.7,1.81 1.2,1.55 3.6,1.92 4.9,1.92 1.6,0 3.7,-0.76 3.7,-3.79 0,-1.47 -0.4,-3.07 -1.3,-4.14 -1.2,-1.33 -2.2,-1.41 -3.9,-1.5 -0.9,-0.08 -0.9,-0.08 -1.1,-0.11 -0.1,0 -0.4,-0.07 -0.4,-0.46 0,-0.48 0.3,-0.48 0.9,-0.48 z"
             id="path1272" /></g>      </g>
    </g>
    <g
       id="g1676">
      <rect
         y="68.05957"
         x="18.952053"
         height="17.153412"
         width="17.153412"
         id="rect1597-7"
         style="opacity:1;vector-effect:none;fill:#35b0ab;fill-opacity:1;stroke:#000000;stroke-width:0.94956678;stroke-linecap:butt;stroke-linejoin:miter;stroke-miterlimit:4;stroke-dasharray:none;stroke-dashoffset:0;stroke-opacity:1" />
      <g
         transform="translate(-291.37124,-40.012724)"
         id="g1198">
        <g
           style="font-style:normal;font-variant:normal;font-weight:normal;font-stretch:normal;letter-spacing:normal;word-spacing:normal;text-anchor:start;fill:none;fill-opacity:1;fill-rule:evenodd;stroke:#000000;stroke-linecap:butt;stroke-linejoin:miter;stroke-miterlimit:10.43299961;stroke-dasharray:none;stroke-dashoffset:0;stroke-opacity:1"
           word-spacing="normal"
           letter-spacing="normal"
           font-size-adjust="none"
           font-stretch="normal"
           font-weight="normal"
           font-variant="normal"
           font-style="normal"
           stroke-miterlimit="10.433"
           xml:space="preserve"
           transform="matrix(0.3,0,0,-0.3,-52.5,222.75)"
           id="g1196"><path
             style="fill:#000000;stroke-width:0"
             inkscape:connector-curvature="0"
             id="path1192"
             d="m 1243.6,364.97 v 0.21 0.2 0.2 l -0.1,0.19 v 0.18 0.18 0.17 l -0.1,0.17 v 0.16 l -0.1,0.15 v 0.14 l -0.1,0.14 v 0.14 l -0.1,0.12 v 0.12 l -0.1,0.12 -0.1,0.11 v 0.1 l -0.1,0.09 -0.1,0.09 -0.1,0.08 -0.1,0.07 v 0.07 l -0.1,0.06 -0.1,0.05 -0.1,0.05 -0.1,0.04 -0.1,0.03 -0.1,0.02 -0.1,0.02 -0.1,0.01 -0.1,0.01 c -1.3,0 -2.6,-1.19 -2.6,-2.35 0,-0.48 0.2,-1.03 0.7,-1.48 0.9,-0.75 1.7,-2.09 1.7,-4.19 0,-2 -0.9,-4.83 -2.4,-7.12 -1.5,-2.14 -3.4,-3.83 -5.7,-3.83 -2.9,0 -4.4,1.78 -4.9,4.47 0.6,1.29 1.7,4.48 1.7,5.89 0,0.59 -0.2,1.09 -0.9,1.09 -0.4,0 -0.9,-0.11 -1.3,-0.84 -0.6,-1 -1.2,-4.24 -1.2,-6.03 -1.6,-2.35 -3.6,-4.58 -6.7,-4.58 -3.3,0 -4.4,2.94 -4.4,5.72 0,6.23 5.1,11.47 5.1,12.11 0,0.54 -0.4,0.95 -0.9,0.95 -0.7,0 -1,-0.66 -1.3,-1.11 -2.6,-3.69 -4.5,-9.61 -4.5,-14.14 0,-3.44 1.2,-7.13 5.3,-7.13 3.5,0 5.8,2.49 7.6,5.24 0.5,-2.89 2.4,-5.24 5.5,-5.24 3.9,0 6.3,3.04 8.1,6.79 1.2,2.43 3.1,9.2 3.1,12.29 z" /><path
             style="fill:#000000;stroke-width:0"
             inkscape:connector-curvature="0"
             id="path1194"
             d="m 1262,345.22 h -1.2 c -0.1,-0.76 -0.5,-2.83 -0.9,-3.17 -0.3,-0.2 -3,-0.2 -3.4,-0.2 h -6.5 c 3.7,3.23 4.9,4.2 7,5.84 2.6,2.06 5,4.22 5,7.53 0,4.22 -3.7,6.8 -8.2,6.8 -4.3,0 -7.2,-3.03 -7.2,-6.23 0,-1.79 1.5,-1.96 1.8,-1.96 0.9,0 1.9,0.6 1.9,1.85 0,0.62 -0.3,1.84 -2.1,1.84 1.1,2.47 3.5,3.23 5.1,3.23 3.5,0 5.3,-2.7 5.3,-5.53 0,-3.03 -2.1,-5.43 -3.3,-6.68 l -8.4,-8.3 c -0.3,-0.31 -0.3,-0.39 -0.3,-1.36 h 14.3 z" /></g>      </g>
    </g>
    <g
       id="g1662"
       transform="translate(-25.123336,-10.824416)">
      <rect
         y="134.07513"
         x="44.07539"
         height="17.153412"
         width="17.153412"
         id="rect1597-2"
         style="opacity:1;vector-effect:none;fill:#35b0ab;fill-opacity:1;stroke:#000000;stroke-width:0.94956678;stroke-linecap:butt;stroke-linejoin:miter;stroke-miterlimit:4;stroke-dasharray:none;stroke-dashoffset:0;stroke-opacity:1" />
      <g
         transform="translate(-266.3229,25.95184)"
         id="g1362">
        <g
           style="font-style:normal;font-variant:normal;font-weight:normal;font-stretch:normal;letter-spacing:normal;word-spacing:normal;text-anchor:start;fill:none;fill-opacity:1;fill-rule:evenodd;stroke:#000000;stroke-linecap:butt;stroke-linejoin:miter;stroke-miterlimit:10.43299961;stroke-dasharray:none;stroke-dashoffset:0;stroke-opacity:1"
           word-spacing="normal"
           letter-spacing="normal"
           font-size-adjust="none"
           font-stretch="normal"
           font-weight="normal"
           font-variant="normal"
           font-style="normal"
           stroke-miterlimit="10.433"
           xml:space="preserve"
           transform="matrix(0.3,0,0,-0.3,-52.5,222.75)"
           id="g1360"><path
             style="fill:#000000;stroke-width:0"
             inkscape:connector-curvature="0"
             id="path1356"
             d="m 1241.2,364.97 v 0.21 0.2 0.2 l -0.1,0.19 v 0.18 0.18 0.17 l -0.1,0.17 v 0.16 l -0.1,0.15 v 0.14 l -0.1,0.14 v 0.14 l -0.1,0.12 v 0.12 l -0.1,0.12 -0.1,0.11 v 0.1 l -0.1,0.09 -0.1,0.09 -0.1,0.08 -0.1,0.07 v 0.07 l -0.1,0.06 -0.1,0.05 -0.1,0.05 -0.1,0.04 -0.1,0.03 -0.1,0.02 -0.1,0.02 -0.1,0.01 -0.1,0.01 c -1.3,0 -2.6,-1.19 -2.6,-2.35 0,-0.48 0.2,-1.03 0.7,-1.48 0.9,-0.75 1.7,-2.09 1.7,-4.19 0,-2 -0.9,-4.83 -2.4,-7.12 -1.5,-2.14 -3.4,-3.83 -5.7,-3.83 -2.9,0 -4.4,1.78 -4.9,4.47 0.6,1.29 1.7,4.48 1.7,5.89 0,0.59 -0.2,1.09 -0.9,1.09 -0.4,0 -0.9,-0.11 -1.3,-0.84 -0.6,-1 -1.2,-4.24 -1.2,-6.03 -1.6,-2.35 -3.6,-4.58 -6.7,-4.58 -3.3,0 -4.4,2.94 -4.4,5.72 0,6.23 5.1,11.47 5.1,12.11 0,0.54 -0.4,0.95 -0.9,0.95 -0.7,0 -1,-0.66 -1.3,-1.11 -2.6,-3.69 -4.5,-9.61 -4.5,-14.14 0,-3.44 1.2,-7.13 5.3,-7.13 3.5,0 5.8,2.49 7.6,5.24 0.5,-2.89 2.4,-5.24 5.5,-5.24 3.9,0 6.3,3.04 8.1,6.79 1.2,2.43 3.1,9.2 3.1,12.29 z" /><path
             style="fill:#000000;stroke-width:0"
             inkscape:connector-curvature="0"
             id="path1358"
             d="m 1246.3,341.07 -0.1,-0.05 v -0.04 -0.05 -0.05 -0.05 -0.05 -0.05 l -0.1,-0.06 v -0.11 -0.11 -0.11 l -0.1,-0.11 v -0.05 -0.05 -0.05 -0.05 -0.05 -0.05 -0.04 l -0.1,-0.04 v -0.04 -0.03 -0.03 -0.03 -0.03 -0.02 0 -0.01 -0.01 -0.01 c 0,-0.76 0.6,-1.1 1.2,-1.1 0.6,0 1.2,0.45 1.3,0.76 0.2,0.31 0.5,1.42 0.7,2.16 0.2,0.65 0.5,2.26 0.7,3.14 0.3,0.76 0.5,1.53 0.6,2.33 0.4,1.43 0.5,1.7 1.5,3.14 1,1.39 2.6,3.2 5.2,3.2 2,0 2.1,-1.78 2.1,-2.44 0,-2.09 -1.5,-5.95 -2.1,-7.42 -0.4,-0.98 -0.5,-1.3 -0.5,-1.89 0,-1.84 1.5,-2.98 3.3,-2.98 3.5,0 5,4.79 5,5.32 0,0.46 -0.4,0.46 -0.5,0.46 -0.5,0 -0.6,-0.21 -0.7,-0.6 -0.8,-2.78 -2.3,-4.22 -3.7,-4.22 -0.7,0 -0.9,0.49 -0.9,1.22 0,0.8 0.2,1.25 0.8,2.83 0.5,1.08 1.9,4.77 1.9,6.72 0,3.39 -2.7,3.97 -4.5,3.97 -2.9,0 -4.9,-1.77 -5.9,-3.16 -0.3,2.39 -2.3,3.16 -3.8,3.16 -1.5,0 -2.3,-1.08 -2.7,-1.88 -0.8,-1.28 -1.3,-3.28 -1.3,-3.45 0,-0.45 0.5,-0.45 0.6,-0.45 0.5,0 0.6,0.11 0.8,1.04 0.5,2.07 1.2,3.77 2.6,3.77 0.8,0 1.1,-0.77 1.1,-1.7 0,-0.68 -0.3,-1.96 -0.6,-2.89 -0.2,-0.96 -0.5,-2.38 -0.7,-3.14 z" /></g>      </g>
    </g>
    <circle
       style="opacity:1;vector-effect:none;fill:#35b0ab;fill-opacity:1;stroke:#000000;stroke-width:1.7199192;stroke-linecap:butt;stroke-linejoin:miter;stroke-miterlimit:4;stroke-dasharray:none;stroke-dashoffset:0;stroke-opacity:1"
       id="path1678-9"
       cx="151.974"
       cy="96.68148"
       r="15.931022" />
    <g
       id="g2167"
       transform="translate(-202.32303,37.150464)"
       style="fill:#226b80;fill-opacity:1;stroke:none;stroke-opacity:1">
      <g
         word-spacing="normal"
         letter-spacing="normal"
         font-size-adjust="none"
         font-stretch="normal"
         font-weight="normal"
         font-variant="normal"
         font-style="normal"
         stroke-miterlimit="10.433"
         xml:space="preserve"
         transform="matrix(0.3,0,0,-0.3,-52.5,222.75)"
         id="g2165"
         style="font-style:normal;font-variant:normal;font-weight:normal;font-stretch:normal;letter-spacing:normal;word-spacing:normal;text-anchor:start;fill:#226b80;fill-opacity:1;fill-rule:evenodd;stroke:none;stroke-linecap:butt;stroke-linejoin:miter;stroke-miterlimit:10.43299961;stroke-dasharray:none;stroke-dashoffset:0;stroke-opacity:1"><path
           id="path2135"
           d="m 1140.4,383.43 v -0.05 -0.04 -0.05 -0.05 l -0.1,-0.05 v -0.05 -0.05 -0.06 -0.11 l -0.1,-0.11 v -0.11 -0.11 -0.05 -0.05 -0.05 l -0.1,-0.05 v -0.05 -0.05 -0.04 -0.04 -0.04 -0.03 -0.03 -0.03 -0.03 -0.02 -0.01 0 -0.01 -0.01 c 0,-0.76 0.6,-1.11 1.2,-1.11 0.6,0 1.1,0.46 1.3,0.77 0.2,0.31 0.5,1.42 0.6,2.16 0.2,0.65 0.6,2.26 0.8,3.14 0.2,0.76 0.4,1.53 0.6,2.33 0.4,1.43 0.5,1.7 1.5,3.14 0.9,1.39 2.6,3.2 5.2,3.2 2,0 2,-1.78 2,-2.44 0,-2.09 -1.5,-5.95 -2,-7.42 -0.4,-0.98 -0.5,-1.3 -0.5,-1.89 0,-1.84 1.5,-2.99 3.3,-2.99 3.5,0 5,4.8 5,5.33 0,0.46 -0.5,0.46 -0.6,0.46 -0.5,0 -0.5,-0.21 -0.6,-0.6 -0.8,-2.78 -2.3,-4.22 -3.7,-4.22 -0.8,0 -0.9,0.49 -0.9,1.22 0,0.8 0.2,1.25 0.8,2.83 0.4,1.08 1.9,4.77 1.9,6.72 0,3.39 -2.7,3.97 -4.6,3.97 -2.9,0 -4.8,-1.77 -5.9,-3.16 -0.2,2.39 -2.3,3.16 -3.7,3.16 -1.5,0 -2.3,-1.08 -2.7,-1.88 -0.8,-1.28 -1.3,-3.28 -1.3,-3.45 0,-0.45 0.5,-0.45 0.6,-0.45 0.5,0 0.5,0.11 0.8,1.04 0.5,2.07 1.1,3.77 2.5,3.77 0.9,0 1.1,-0.77 1.1,-1.7 0,-0.68 -0.3,-1.96 -0.5,-2.89 -0.2,-0.96 -0.6,-2.38 -0.8,-3.15 z"
           inkscape:connector-curvature="0"
           style="fill:#226b80;fill-opacity:1;stroke:none;stroke-width:0;stroke-opacity:1" /><path
           id="path2137"
           d="m 1175.6,296.49 6,15.94 h -1.2 c -2,-5.18 -7.3,-8.57 -13,-10.07 -1,-0.25 -5.9,-1.54 -15.5,-1.54 h -30 l 25.3,29.75 c 0.4,0.39 0.5,0.54 0.5,0.79 0,0.1 0,0.25 -0.4,0.75 l -23.2,31.74 h 27.3 c 6.7,0 11.2,-0.71 11.7,-0.8 2.7,-0.41 7,-1.25 11,-3.73 1.2,-0.8 4.6,-3.05 6.3,-7.08 h 1.2 l -6,14 h -58.9 c -1.1,0 -1.2,-0.05 -1.3,-0.35 -0.1,-0.15 -0.1,-1.09 -0.1,-1.65 l 26.4,-36.06 -25.8,-30.25 c -0.5,-0.6 -0.5,-0.85 -0.5,-0.89 0,-0.55 0.4,-0.55 1.3,-0.55 z"
           inkscape:connector-curvature="0"
           style="fill:#226b80;fill-opacity:1;stroke:none;stroke-width:0;stroke-opacity:1" /><path
           id="path2139"
           d="m 1127.5,281.94 v 0.05 0.06 0.05 0.06 0.05 0.06 0.05 0.06 l -0.1,0.06 v 0.05 0.06 0.05 l -0.1,0.06 v 0.05 l -0.1,0.05 v 0.05 0.05 l -0.1,0.05 v 0.04 l -0.1,0.04 v 0.04 l -0.1,0.04 -0.1,0.04 v 0.03 l -0.1,0.03 -0.1,0.02 -0.1,0.03 v 0.02 l -0.1,0.01 -0.1,0.01 -0.1,0.01 h -0.1 c -0.9,0 -1.9,-0.91 -1.9,-1.92 0,-0.6 0.4,-1.33 1.4,-1.33 1,0 1.9,0.98 1.9,1.92 z"
           inkscape:connector-curvature="0"
           style="fill:#226b80;fill-opacity:1;stroke:none;stroke-width:0;stroke-opacity:1" /><path
           id="path2141"
           d="m 1120.4,264.24 v -0.09 -0.08 l -0.1,-0.17 v -0.08 -0.09 l -0.1,-0.09 v -0.08 -0.09 -0.09 -0.1 l -0.1,-0.09 v -0.05 -0.05 -0.05 -0.06 -0.05 -0.05 -0.05 -0.06 c 0,-1.64 1.4,-2.95 3.3,-2.95 3.5,0 5,4.79 5,5.32 0,0.46 -0.4,0.46 -0.5,0.46 -0.5,0 -0.6,-0.21 -0.7,-0.6 -0.8,-2.78 -2.3,-4.21 -3.7,-4.21 -0.7,0 -0.9,0.45 -0.9,1.21 0,0.8 0.3,1.47 0.6,2.24 0.4,0.94 0.7,1.87 1.1,2.78 0.3,0.84 1.6,4.02 1.7,4.44 0.1,0.34 0.2,0.76 0.2,1.11 0,1.64 -1.4,2.95 -3.3,2.95 -3.4,0 -5,-4.73 -5,-5.33 0,-0.45 0.5,-0.45 0.6,-0.45 0.5,0 0.5,0.17 0.6,0.56 0.9,3 2.4,4.25 3.7,4.25 0.6,0 0.9,-0.28 0.9,-1.22 0,-0.79 -0.2,-1.33 -1.1,-3.48 z"
           inkscape:connector-curvature="0"
           style="fill:#226b80;fill-opacity:1;stroke:none;stroke-width:0;stroke-opacity:1" /><path
           id="path2143"
           d="m 1157,271.86 h 0.1 v 0 h 0.1 v 0 l 0.2,0.01 v 0 l 0.1,0.01 v 0 l 0.1,0.01 v 0.01 l 0.1,0.01 v 0.01 l 0.1,0.02 v 0.01 l 0.1,0.02 v 0.02 l 0.1,0.03 v 0.03 l 0.1,0.03 v 0.03 l 0.1,0.04 v 0.04 0.02 0.02 0.03 l 0.1,0.02 v 0.03 0.02 0.03 0.03 0.03 0.03 0.03 0.03 0.04 l 0.1,0.03 v 0.04 0.04 0.04 0.04 c 0,0.84 -0.9,0.84 -1.3,0.84 H 1134 c -0.4,0 -1.3,0 -1.3,-0.84 0,-0.88 0.8,-0.88 1.3,-0.88 z"
           inkscape:connector-curvature="0"
           style="fill:#226b80;fill-opacity:1;stroke:none;stroke-width:0;stroke-opacity:1" /><path
           id="path2145"
           d="m 1157.1,264.21 v 0 h 0.1 v 0 h 0.1 v 0 h 0.1 v 0.01 h 0.1 v 0.01 h 0.1 v 0.01 l 0.1,0.01 v 0.01 l 0.1,0.02 v 0.01 l 0.1,0.02 v 0.02 l 0.1,0.02 v 0.03 l 0.1,0.03 v 0.03 l 0.1,0.04 v 0.03 0.02 0.03 0.02 l 0.1,0.02 v 0.03 0.02 0.03 0.02 0.03 0.03 0.03 0.03 0.04 l 0.1,0.03 v 0.03 0.04 0.04 0.04 c 0,0.87 -0.8,0.87 -1.4,0.87 h -23 c -0.5,0 -1.3,0 -1.3,-0.87 0,-0.83 0.9,-0.83 1.3,-0.83 z"
           inkscape:connector-curvature="0"
           style="fill:#226b80;fill-opacity:1;stroke:none;stroke-width:0;stroke-opacity:1" /><path
           id="path2147"
           d="m 1172.6,282.32 -0.1,0.04 v 0.04 0.04 0.04 0.04 0.04 0.04 0.03 0.04 0.03 0.03 0.03 0.03 0.03 0.03 0.02 0.03 0.02 0.02 0.03 0.04 0.04 0.03 l -0.1,0.03 v 0.03 0.03 0.02 l -0.1,0.02 v 0.02 0.01 l -0.1,0.01 v 0.01 l -0.1,0.01 v 0.01 0 h -0.1 v 0.01 0 0 h -0.1 v 0.01 0 h -0.1 v 0 0 h -0.1 v 0 h -0.1 v 0 h -0.1 v 0 c -2.2,-2.2 -5.4,-2.23 -6.8,-2.23 v -1.25 c 0.8,0 3.1,0 5,0.97 v -17.77 c 0,-1.16 0,-1.61 -3.5,-1.61 h -1.3 v -1.25 c 0.7,0.03 4.9,0.14 6.2,0.14 1.1,0 5.5,-0.11 6.3,-0.14 v 1.25 h -1.4 c -3.4,0 -3.4,0.45 -3.4,1.61 z"
           inkscape:connector-curvature="0"
           style="fill:#226b80;fill-opacity:1;stroke:none;stroke-width:0;stroke-opacity:1" /><path
           id="path2149"
           d="m 1222.9,337.49 v 0.21 0.2 0.2 0.19 0.18 0.18 l -0.1,0.17 v 0.17 l -0.1,0.15 v 0.16 0.14 l -0.1,0.14 -0.1,0.14 v 0.12 l -0.1,0.12 v 0.12 l -0.1,0.11 -0.1,0.1 -0.1,0.09 v 0.09 l -0.1,0.08 -0.1,0.07 -0.1,0.07 -0.1,0.06 -0.1,0.05 -0.1,0.05 v 0.04 l -0.1,0.03 -0.1,0.02 -0.1,0.02 -0.1,0.01 -0.1,0.01 c -1.3,0 -2.7,-1.19 -2.7,-2.35 0,-0.48 0.3,-1.03 0.8,-1.48 0.8,-0.75 1.7,-2.1 1.7,-4.19 0,-2 -1,-4.83 -2.5,-7.12 -1.5,-2.14 -3.3,-3.83 -5.7,-3.83 -2.8,0 -4.4,1.78 -4.8,4.47 0.5,1.29 1.7,4.48 1.7,5.89 0,0.59 -0.3,1.09 -0.9,1.09 -0.4,0 -1,-0.11 -1.3,-0.84 -0.6,-1 -1.2,-4.24 -1.2,-6.03 -1.6,-2.35 -3.6,-4.58 -6.8,-4.58 -3.3,0 -4.3,2.94 -4.3,5.72 0,6.23 5.1,11.47 5.1,12.11 0,0.54 -0.4,0.95 -1,0.95 -0.6,0 -1,-0.66 -1.3,-1.11 -2.5,-3.69 -4.4,-9.61 -4.4,-14.14 0,-3.44 1.2,-7.13 5.2,-7.13 3.6,0 5.9,2.49 7.7,5.24 0.5,-2.89 2.4,-5.24 5.5,-5.24 3.9,0 6.3,3.04 8,6.79 1.3,2.43 3.1,9.2 3.1,12.29 z"
           inkscape:connector-curvature="0"
           style="fill:#226b80;fill-opacity:1;stroke:none;stroke-width:0;stroke-opacity:1" /><path
           id="path2151"
           d="m 1235.1,333.3 v 0.05 0.06 l -0.1,0.05 v 0.06 0.05 0.06 0.05 0.06 0.06 l -0.1,0.05 v 0.06 0.05 l -0.1,0.06 v 0.05 0.05 l -0.1,0.05 v 0.05 l -0.1,0.05 v 0.04 l -0.1,0.04 v 0.04 l -0.1,0.04 v 0.04 l -0.1,0.03 -0.1,0.03 -0.1,0.02 v 0.03 l -0.1,0.01 -0.1,0.02 -0.1,0.01 -0.1,0.01 v 0 c -1,0 -2,-0.91 -2,-1.92 0,-0.6 0.5,-1.33 1.4,-1.33 1,0 2,0.98 2,1.92 z"
           inkscape:connector-curvature="0"
           style="fill:#226b80;fill-opacity:1;stroke:none;stroke-width:0;stroke-opacity:1" /><path
           id="path2153"
           d="m 1227.9,315.6 v -0.17 l -0.1,-0.17 v -0.08 -0.09 -0.09 l -0.1,-0.08 v -0.09 -0.09 -0.1 -0.09 -0.1 -0.05 l -0.1,-0.06 v -0.05 -0.05 -0.06 -0.05 c 0,-1.64 1.4,-2.95 3.3,-2.95 3.5,0 5.1,4.79 5.1,5.32 0,0.46 -0.5,0.46 -0.6,0.46 -0.5,0 -0.5,-0.21 -0.7,-0.6 -0.8,-2.78 -2.3,-4.22 -3.7,-4.22 -0.7,0 -0.8,0.46 -0.8,1.22 0,0.8 0.2,1.47 0.5,2.24 0.4,0.94 0.8,1.87 1.1,2.78 0.4,0.84 1.6,4.01 1.8,4.44 0.1,0.34 0.2,0.76 0.2,1.11 0,1.64 -1.4,2.95 -3.4,2.95 -3.4,0 -5,-4.74 -5,-5.33 0,-0.45 0.5,-0.45 0.6,-0.45 0.5,0 0.5,0.17 0.6,0.56 0.9,3 2.5,4.25 3.7,4.25 0.6,0 0.9,-0.28 0.9,-1.22 0,-0.8 -0.2,-1.33 -1.1,-3.48 z"
           inkscape:connector-curvature="0"
           style="fill:#226b80;fill-opacity:1;stroke:none;stroke-width:0;stroke-opacity:1" /><path
           id="path2155"
           d="m 1257.1,334.01 v 0.13 0.15 l 0.1,0.16 v 0.18 l 0.1,0.2 v 0.2 l 0.1,0.22 0.1,0.22 0.1,0.24 0.1,0.24 v 0.24 l 0.2,0.25 0.1,0.25 0.1,0.25 0.1,0.25 0.2,0.24 0.1,0.24 0.2,0.24 0.1,0.23 0.2,0.23 0.2,0.21 0.2,0.2 0.2,0.19 0.2,0.18 0.2,0.16 0.3,0.14 0.1,0.07 0.1,0.06 0.2,0.05 0.1,0.05 0.2,0.05 0.1,0.04 0.1,0.03 0.2,0.03 0.1,0.02 0.2,0.02 0.2,0.01 h 0.1 c 0.3,0 1.5,0 2.5,-0.64 -1.4,-0.25 -2.4,-1.5 -2.4,-2.69 0,-0.79 0.6,-1.75 1.9,-1.75 1.1,0 2.7,0.9 2.7,2.9 0,2.59 -2.9,3.28 -4.6,3.28 -2.9,0 -4.7,-2.64 -5.3,-3.78 -1.2,3.28 -3.9,3.78 -5.3,3.78 -5.2,0 -8.1,-6.43 -8.1,-7.68 0,-0.5 0.5,-0.5 0.6,-0.5 0.4,0 0.6,0.11 0.7,0.55 1.7,5.28 5,6.53 6.6,6.53 1,0 2.7,-0.43 2.7,-3.33 0,-1.54 -0.8,-4.89 -2.7,-11.85 -0.7,-3.1 -2.5,-5.19 -4.7,-5.19 -0.3,0 -1.4,0 -2.5,0.65 1.3,0.24 2.4,1.29 2.4,2.69 0,1.35 -1.1,1.74 -1.9,1.74 -1.5,0 -2.7,-1.3 -2.7,-2.89 0,-2.29 2.5,-3.29 4.7,-3.29 3.3,0 5,3.49 5.2,3.79 0.6,-1.85 2.4,-3.79 5.4,-3.79 5.1,0 8,6.43 8,7.68 0,0.5 -0.5,0.5 -0.6,0.5 -0.5,0 -0.6,-0.21 -0.7,-0.55 -1.6,-5.33 -5,-6.53 -6.6,-6.53 -2,0 -2.8,1.59 -2.8,3.29 0,1.1 0.3,2.19 0.9,4.38 z"
           inkscape:connector-curvature="0"
           style="fill:#226b80;fill-opacity:1;stroke:none;stroke-width:0;stroke-opacity:1" /><path
           id="path2157"
           d="m 1280.2,333.3 v 0.05 0.06 0.05 0.06 l -0.1,0.05 v 0.06 0.05 0.06 0.06 0.05 l -0.1,0.06 v 0.05 0.06 l -0.1,0.05 v 0.05 l -0.1,0.05 v 0.05 0.05 l -0.1,0.04 -0.1,0.04 v 0.04 l -0.1,0.04 v 0.04 l -0.1,0.03 -0.1,0.03 v 0.02 l -0.1,0.03 -0.1,0.01 -0.1,0.02 -0.1,0.01 v 0.01 h -0.1 c -1,0 -2,-0.91 -2,-1.92 0,-0.6 0.5,-1.33 1.4,-1.33 1,0 2,0.98 2,1.92 z"
           inkscape:connector-curvature="0"
           style="fill:#226b80;fill-opacity:1;stroke:none;stroke-width:0;stroke-opacity:1" /><path
           id="path2159"
           d="m 1273.1,315.6 -0.1,-0.09 v -0.08 -0.17 l -0.1,-0.08 v -0.09 -0.09 -0.08 l -0.1,-0.09 v -0.09 -0.1 -0.09 -0.05 -0.05 -0.05 -0.06 -0.05 -0.05 -0.06 -0.05 c 0,-1.64 1.3,-2.95 3.3,-2.95 3.4,0 5,4.79 5,5.32 0,0.46 -0.5,0.46 -0.6,0.46 -0.5,0 -0.5,-0.21 -0.7,-0.6 -0.7,-2.78 -2.3,-4.22 -3.6,-4.22 -0.7,0 -0.9,0.46 -0.9,1.22 0,0.8 0.2,1.47 0.5,2.24 0.4,0.94 0.8,1.87 1.2,2.78 0.3,0.84 1.5,4.01 1.7,4.44 0.1,0.34 0.2,0.76 0.2,1.11 0,1.64 -1.4,2.95 -3.3,2.95 -3.5,0 -5.1,-4.74 -5.1,-5.33 0,-0.45 0.5,-0.45 0.6,-0.45 0.5,0 0.5,0.17 0.6,0.56 0.9,3 2.5,4.25 3.8,4.25 0.5,0 0.8,-0.28 0.8,-1.22 0,-0.8 -0.2,-1.33 -1,-3.48 z"
           inkscape:connector-curvature="0"
           style="fill:#226b80;fill-opacity:1;stroke:none;stroke-width:0;stroke-opacity:1" /><path
           id="path2161"
           d="m 1316.9,330.41 h 13.9 c 0.6,0 1.6,0 1.6,1 0,1 -1,1 -1.6,1 h -13.9 v 13.96 c 0,0.68 0,1.64 -1,1.64 -1,0 -1,-0.96 -1,-1.64 v -13.96 h -14 c -0.7,0 -1.6,0 -1.6,-1 0,-1 0.9,-1 1.6,-1 h 14 v -13.93 c 0,-0.71 0,-1.66 1,-1.66 1,0 1,0.95 1,1.66 z"
           inkscape:connector-curvature="0"
           style="fill:#226b80;fill-opacity:1;stroke:none;stroke-width:0;stroke-opacity:1" /><path
           id="path2163"
           d="m 1358.2,352.99 v 0 0.01 0.01 0.01 0.01 0.01 0.02 0.02 0.02 0.02 0.02 0.02 l -0.1,0.03 v 0.02 0.02 0.03 0.02 0.03 0.02 l -0.1,0.03 v 0.02 0.01 0.01 0.01 0.01 0.01 l -0.1,0.01 v 0.01 0.01 0.01 0.01 0.01 h -0.1 v 0.01 0.01 0 0.01 h -0.1 v 0.01 0 0 l -0.1,0.01 v 0 0 h -0.1 c -1.1,0 -4.7,-0.41 -6,-0.5 -0.4,-0.05 -1,-0.09 -1,-1 0,-0.59 0.5,-0.59 1.2,-0.59 2.4,0 2.5,-0.35 2.5,-0.85 0,-0.36 -0.4,-2.05 -0.7,-3.09 l -4.1,-16.24 c -0.6,-2.5 -0.8,-3.29 -0.8,-5.03 0,-4.73 2.7,-7.83 6.3,-7.83 v 1.1 c -1.6,0 -3.3,1.34 -3.3,5.03 0,0.95 0,1.89 0.8,5.03 l 1.1,4.59 c 0.3,1.1 0.3,1.19 0.8,1.74 2.4,3.23 4.6,3.98 5.9,3.98 1.8,0 3.2,-1.48 3.2,-4.68 0,-2.94 -1.7,-8.66 -2.6,-10.57 -1.6,-3.33 -3.9,-5.12 -5.9,-5.12 v -1.1 c 5.9,0 12,7.43 12,14.6 0,4.53 -2.6,7.97 -6.6,7.97 -2.3,0 -4.3,-1.44 -5.8,-2.99 z"
           inkscape:connector-curvature="0"
           style="fill:#226b80;fill-opacity:1;stroke:none;stroke-width:0;stroke-opacity:1" /></g>    </g>
    <g
       id="g2631"
       transform="translate(-167.181,-18.40002)">
      <g
         word-spacing="normal"
         letter-spacing="normal"
         font-size-adjust="none"
         font-stretch="normal"
         font-weight="normal"
         font-variant="normal"
         font-style="normal"
         stroke-miterlimit="10.433"
         xml:space="preserve"
         transform="matrix(0.3,0,0,-0.3,-52.5,222.75)"
         id="g2629"
         style="font-style:normal;font-variant:normal;font-weight:normal;font-stretch:normal;letter-spacing:normal;word-spacing:normal;text-anchor:start;fill:none;fill-opacity:1;fill-rule:evenodd;stroke:#000000;stroke-linecap:butt;stroke-linejoin:miter;stroke-miterlimit:10.43299961;stroke-dasharray:none;stroke-dashoffset:0;stroke-opacity:1"><path
           id="path2621"
           d="m 1220.8,379.82 v 0 0.01 0 0.01 0.01 0.01 0.01 0.01 0.02 0.02 0.02 0.03 0.02 0.03 0.03 l 0.1,0.02 v 0.03 0.03 0.06 0.06 0.03 0.03 0.02 0.03 0.02 0.03 0.02 0.02 0.01 0 l 0.1,0.01 v 0.01 0.01 0 0.01 0.01 0 0 0.01 0 c 0,0.05 0,0.5 -0.6,0.5 -0.5,0 -0.6,-0.16 -0.8,-1 l -2.9,-11.5 c -7.9,-0.25 -15.2,-6.88 -15.2,-13.66 0,-4.73 3.5,-8.67 9.5,-9.01 l 0.3,1.09 c -3,0.14 -6.6,1.89 -6.6,6.88 0,5.98 4.3,12.95 11.7,13.59 l -5.1,-20.47 -0.3,-1.09 c -0.3,-1.55 -0.7,-3.14 -1.1,-4.69 -0.6,-2.34 -1.1,-4.23 -1.1,-4.39 0,-0.48 0.4,-0.55 0.6,-0.55 0.3,0 0.4,0.07 0.5,0.21 0.1,0.09 0.4,1.29 0.5,2 l 1.9,7.42 0.3,1.09 5.1,20.47 c 3.8,-0.19 6.6,-2.48 6.6,-6.87 0,-5.88 -4.2,-13 -11.7,-13.6 l -0.3,-1.09 c 8.1,0.25 15.3,6.97 15.3,13.64 0,3.94 -2.7,8.53 -9.6,9.03 z"
           inkscape:connector-curvature="0"
           style="fill:#000000;stroke-width:0" /><path
           id="path2623"
           d="m 1245.2,334.49 v 0.02 0.03 0.01 0.02 0.01 l -0.1,0.02 v 0.02 0.01 0.02 0.02 0.03 0.02 0.02 0.03 l -0.1,0.03 v 0.03 0.04 0.03 l -0.1,0.02 v 0.02 0.02 0.02 0.02 l -0.1,0.03 v 0.02 0.02 0.03 0.03 l -0.1,0.02 v 0.03 0.03 0.03 l -0.1,0.03 v 0.03 0.03 l -0.1,0.03 v 0.04 0.03 l -0.1,0.04 v 0.04 0.03 l -0.1,0.04 c -6.2,6.28 -7.8,15.69 -7.8,23.31 0,8.68 1.9,17.35 8,23.57 0.7,0.61 0.7,0.7 0.7,0.86 0,0.34 -0.2,0.48 -0.5,0.48 -0.5,0 -5,-3.37 -7.9,-9.7 -2.6,-5.49 -3.2,-11.02 -3.2,-15.21 0,-3.89 0.6,-9.9 3.3,-15.54 3,-6.13 7.3,-9.36 7.8,-9.36 0.3,0 0.5,0.14 0.5,0.5 z"
           inkscape:connector-curvature="0"
           style="fill:#000000;stroke-width:0" /><path
           id="path2625"
           d="m 1257.6,358.89 -0.1,0.14 v 0.13 0.14 0.13 0.12 l -0.1,0.13 v 0.12 l -0.1,0.12 v 0.12 l -0.1,0.11 v 0.11 l -0.1,0.11 -0.1,0.1 -0.1,0.1 v 0.1 l -0.1,0.09 -0.1,0.09 -0.1,0.08 -0.1,0.08 -0.1,0.07 -0.1,0.07 -0.1,0.07 -0.1,0.05 -0.2,0.06 -0.1,0.04 -0.1,0.05 -0.1,0.03 -0.2,0.03 -0.1,0.02 -0.1,0.02 -0.2,0.01 -0.1,0.01 c -1.4,0 -2.6,-1.19 -2.6,-2.65 0,-1.43 1.2,-2.64 2.6,-2.64 1.5,0 2.7,1.21 2.7,2.64 z"
           inkscape:connector-curvature="0"
           style="fill:#000000;stroke-width:0" /><path
           id="path2627"
           d="m 1276.2,358.89 v 0.38 0.38 0.39 0.41 l -0.1,0.84 v 0.88 l -0.1,0.92 -0.1,0.95 -0.2,0.98 -0.1,1 -0.2,1.02 -0.3,1.04 -0.2,1.05 -0.3,1.06 -0.4,1.06 -0.4,1.07 -0.2,0.53 -0.2,0.53 -0.3,0.53 -0.2,0.53 c -3,6.13 -7.3,9.36 -7.8,9.36 -0.3,0 -0.5,-0.19 -0.5,-0.48 0,-0.16 0,-0.25 1,-1.16 4.9,-4.92 7.7,-12.84 7.7,-23.27 0,-8.51 -1.8,-17.28 -8,-23.56 -0.7,-0.59 -0.7,-0.7 -0.7,-0.84 0,-0.3 0.2,-0.5 0.5,-0.5 0.5,0 5,3.39 8,9.72 2.5,5.47 3.1,11 3.1,15.18 z"
           inkscape:connector-curvature="0"
           style="fill:#000000;stroke-width:0" /></g>    </g>
    <text
       xml:space="preserve"
       style="font-style:normal;font-weight:normal;font-size:10.58333302px;line-height:1.25;font-family:sans-serif;letter-spacing:0px;word-spacing:0px;fill:#000000;fill-opacity:1;stroke:none;stroke-width:0.26458332"
       x="8.1888533"
       y="12.820569"
       id="text2744"><tspan
         sodipodi:role="line"
         id="tspan2742"
         x="8.1888533"
         y="12.820569"
         style="font-style:normal;font-variant:normal;font-weight:normal;font-stretch:normal;font-family:'Century Gothic';-inkscape-font-specification:'Century Gothic';stroke-width:0.26458332">weights</tspan></text>
    <text
       xml:space="preserve"
       style="font-style:normal;font-weight:normal;font-size:10.58333302px;line-height:1.25;font-family:sans-serif;letter-spacing:0px;word-spacing:0px;fill:#000000;fill-opacity:1;stroke:none;stroke-width:0.26458332"
       x="-32.347229"
       y="12.820569"
       id="text2744-4"><tspan
         sodipodi:role="line"
         id="tspan2742-4"
         x="-32.347229"
         y="12.820569"
         style="font-style:normal;font-variant:normal;font-weight:normal;font-stretch:normal;font-family:'Century Gothic';-inkscape-font-specification:'Century Gothic';stroke-width:0.26458332">inputs</tspan></text>
    <text
       xml:space="preserve"
       style="font-style:normal;font-weight:normal;font-size:10.58333302px;line-height:1.25;font-family:sans-serif;letter-spacing:0px;word-spacing:0px;fill:#000000;fill-opacity:1;stroke:none;stroke-width:0.26458332"
       x="125.7663"
       y="12.820569"
       id="text2744-4-0"><tspan
         sodipodi:role="line"
         id="tspan2742-4-7"
         x="125.7663"
         y="12.820569"
         style="font-style:normal;font-variant:normal;font-weight:normal;font-stretch:normal;font-family:'Century Gothic';-inkscape-font-specification:'Century Gothic';stroke-width:0.26458332">activation </tspan><tspan
         sodipodi:role="line"
         x="125.7663"
         y="26.294306"
         style="font-style:normal;font-variant:normal;font-weight:normal;font-stretch:normal;font-family:'Century Gothic';-inkscape-font-specification:'Century Gothic';stroke-width:0.26458332"
         id="tspan2800">function</tspan></text>
    <text
       xml:space="preserve"
       style="font-style:normal;font-weight:normal;font-size:10.58333302px;line-height:1.25;font-family:sans-serif;letter-spacing:0px;word-spacing:0px;fill:#000000;fill-opacity:1;stroke:none;stroke-width:0.26458332"
       x="214.00685"
       y="12.593193"
       id="text2744-4-0-1"><tspan
         sodipodi:role="line"
         id="tspan2742-4-7-6"
         x="214.00685"
         y="12.593193"
         style="font-style:normal;font-variant:normal;font-weight:normal;font-stretch:normal;font-family:'Century Gothic';-inkscape-font-specification:'Century Gothic';stroke-width:0.26458332">output</tspan></text>
    <g
       id="g2825"
       transform="translate(12.589088)">
      <g
         transform="translate(-209.92222,19.777945)"
         id="g1066">
        <g
           style="font-style:normal;font-variant:normal;font-weight:normal;font-stretch:normal;letter-spacing:normal;word-spacing:normal;text-anchor:start;fill:none;fill-opacity:1;fill-rule:evenodd;stroke:#000000;stroke-linecap:butt;stroke-linejoin:miter;stroke-miterlimit:10.43299961;stroke-dasharray:none;stroke-dashoffset:0;stroke-opacity:1"
           word-spacing="normal"
           letter-spacing="normal"
           font-size-adjust="none"
           font-stretch="normal"
           font-weight="normal"
           font-variant="normal"
           font-style="normal"
           stroke-miterlimit="10.433"
           xml:space="preserve"
           transform="matrix(0.3,0,0,-0.3,-80.296031,134.68469)"
           id="g1064"><path
             style="fill:#000000;stroke-width:0"
             inkscape:connector-curvature="0"
             id="path1062"
             d="m 1241.3,380.47 v 0.01 0 0.01 0.01 0.01 0.01 0.02 0.02 0.02 0.02 0.02 0.02 0.03 0.02 l -0.1,0.02 v 0.03 0.02 0.03 0.02 0.03 l -0.1,0.02 v 0.01 0.01 0.01 0.01 0.01 0.01 l -0.1,0.01 v 0.01 0.01 0.01 0.01 0 l -0.1,0.01 v 0.01 0 0.01 h -0.1 v 0.01 0 0 l -0.1,0.01 v 0 0 0 c -1.2,0 -4.8,-0.41 -6.1,-0.5 -0.4,-0.05 -1,-0.09 -1,-1 0,-0.59 0.5,-0.59 1.2,-0.59 2.4,0 2.5,-0.35 2.5,-0.85 0,-0.36 -0.4,-2.04 -0.7,-3.09 l -4.1,-16.24 c -0.6,-2.5 -0.8,-3.29 -0.8,-5.03 0,-4.73 2.7,-7.83 6.4,-7.83 v 1.1 c -1.7,0 -3.4,1.34 -3.4,5.03 0,0.95 0,1.89 0.8,5.03 l 1.1,4.59 c 0.3,1.1 0.3,1.19 0.8,1.74 2.4,3.23 4.7,3.98 5.9,3.98 1.9,0 3.2,-1.48 3.2,-4.68 0,-2.94 -1.7,-8.66 -2.6,-10.57 -1.6,-3.32 -3.9,-5.12 -5.8,-5.12 v -1.1 c 5.8,0 12,7.43 12,14.6 0,4.53 -2.7,7.97 -6.7,7.97 -2.2,0 -4.3,-1.44 -5.8,-2.99 z" /></g>      </g>
      <text
         id="text2744-4-0-1-9"
         y="49.322536"
         x="53.260914"
         style="font-style:normal;font-weight:normal;font-size:10.58333302px;line-height:1.25;font-family:sans-serif;letter-spacing:0px;word-spacing:0px;fill:#000000;fill-opacity:1;stroke:none;stroke-width:0.26458332"
         xml:space="preserve"><tspan
           style="font-style:normal;font-variant:normal;font-weight:normal;font-stretch:normal;font-family:'Century Gothic';-inkscape-font-specification:'Century Gothic';stroke-width:0.26458332"
           y="49.322536"
           x="53.260914"
           id="tspan2742-4-7-6-5"
           sodipodi:role="line">bias</tspan></text>
    </g>
  </g>
</svg>
